<?xml version="1.0" standalone="no"?><!DOCTYPE svg PUBLIC "-//W3C//DTD SVG 1.1//EN" "http://www.w3.org/Graphics/SVG/1.1/DTD/svg11.dtd"><svg t="1732514969924" class="icon" viewBox="0 0 1024 1024" version="1.1" xmlns="http://www.w3.org/2000/svg" p-id="5959" xmlns:xlink="http://www.w3.org/1999/xlink" width="200" height="200"><path d="M680.834693 71.996565l198.842422 189.829111v690.177759H183.67368V71.996565h497.161013M685.671103 0H171.692572a60.015457 60.015457 0 0 0-60.015457 60.015457V963.984543a60.015457 60.015457 0 0 0 60.015457 60.015457h719.96565a60.015457 60.015457 0 0 0 60.015458-60.015457V256.659511a60.015457 60.015457 0 0 0-18.576213-43.417776L727.220266 16.487763a60.015457 60.015457 0 0 0-41.384285-16.487763z" fill="#959CA7" p-id="5960"></path><path d="M93.595535 497.270932h836.80893a54.95921 54.95921 0 0 1 54.95921 54.95921v304.254186a54.95921 54.95921 0 0 1-54.95921 54.95921H93.595535a54.95921 54.95921 0 0 1-54.95921-54.95921v-304.254186a54.95921 54.95921 0 0 1 54.95921-54.95921z" fill="#D4582B" p-id="5961"></path><path d="M325.028768 825.927007h-53.420352l-21.214255-54.95921H153.226277l-20.060111 54.95921H81.119794l94.694719-243.084585h51.881494z m-90.352941-96.178617l-33.525119-90.188064-32.975526 90.188064z m114.919708 96.178617v-243.084585h49.078574v243.084585z m251.328467-89.363675l47.594676 15.113783a106.730786 106.730786 0 0 1-36.437957 59.08115 103.817948 103.817948 0 0 1-64.577071 19.290683 104.422499 104.422499 0 0 1-79.580936-32.975526 126.406183 126.406183 0 0 1-31.161872-90.46286 132.89137 132.89137 0 0 1 31.326749-94.255045 107.445255 107.445255 0 0 1 82.438815-33.580077 101.069987 101.069987 0 0 1 72.436239 26.380421 95.848862 95.848862 0 0 1 24.896522 44.791756l-48.583942 11.596393a51.551739 51.551739 0 0 0-18.02662-29.952769 51.551739 51.551739 0 0 0-32.975526-10.991842 55.288965 55.288965 0 0 0-43.967368 19.400601 95.079433 95.079433 0 0 0-16.817519 62.818377 101.949334 101.949334 0 0 0 16.487763 65.676256 53.860026 53.860026 0 0 0 43.088021 19.565479 49.133534 49.133534 0 0 0 33.635036-12.420782 72.216402 72.216402 0 0 0 20.22499-39.075998z m245.227995 0l47.594675 15.113783a106.730786 106.730786 0 0 1-36.382997 59.08115 103.817948 103.817948 0 0 1-64.577071 19.290683 104.422499 104.422499 0 0 1-79.580936-32.975526 126.406183 126.406183 0 0 1-31.161872-90.46286 132.89137 132.89137 0 0 1 31.326749-94.255045 107.445255 107.445255 0 0 1 82.438815-33.580077 101.069987 101.069987 0 0 1 72.436239 26.380421 95.848862 95.848862 0 0 1 24.896522 44.791756l-48.583942 11.596393a51.551739 51.551739 0 0 0-17.971661-29.842851 51.551739 51.551739 0 0 0-32.975526-10.991842 55.288965 55.288965 0 0 0-43.967368 19.400601 95.079433 95.079433 0 0 0-16.817518 62.818377 101.949334 101.949334 0 0 0 16.487763 65.676256 53.860026 53.860026 0 0 0 43.08802 19.565479 49.133534 49.133534 0 0 0 33.635037-12.420781 72.216402 72.216402 0 0 0 20.060111-39.185917z" fill="#FFFFFF" p-id="5962"></path><path d="M391.144697 199.611851a55.014169 55.014169 0 0 0 0 109.91842 55.014169 55.014169 0 0 0 0-109.91842m0-54.95921a109.91842 109.91842 0 1 1 0 219.836839 109.91842 109.91842 0 0 1 0-219.836839z" fill="#959CA7" p-id="5963"></path></svg>